<svg xmlns="http://www.w3.org/2000/svg" width="100%" height="100%" viewBox="0 0 128 58" class="fill-orange w-full">
  <path d="M0,23.69H25.567V15.521H12.412L17.625,0H7.778Zm28.546,0H51.3V16.746H37.648V14.7h12V8.985h-12V6.943H51.3V0H28.546Zm6.536,33.493H45.177l3.475-10.62h3.971l5.792,10.62h10.26L62.3,46.155a9.4,9.4,0,0,0,6.951-9.394c0-5.719-4.138-9.8-10.177-9.8H45.011Zm16.3-18.789,1.075-3.267h5.792c1.159,0,1.9.572,1.9,1.634s-.745,1.634-1.9,1.634ZM62.469,0,75.708,45.257C78.024,53.263,80.176,58,88.615,58c6.868,0,13.736-4.656,9.681-18.462L86.8,0H76.453L89.195,43.867c.827,2.7.827,4.33-.91,4.33-1.076,0-1.655-.654-2.235-2.7L72.812,0ZM98.627,30.225H118.4c5.543,0,9.6-3.921,9.6-9.393a8.362,8.362,0,0,0-4.3-7.516A6.356,6.356,0,0,0,125.1,8.985C125.1,3.675,121.3,0,115.92,0H98.627Zm9.1-8.169V18.3h9.184a1.756,1.756,0,0,1,1.986,1.879,1.756,1.756,0,0,1-1.986,1.879Zm0-10.947V8.169h6.537a1.381,1.381,0,0,1,1.488,1.47,1.381,1.381,0,0,1-1.488,1.471Z"></path>
</svg>