<svg xmlns="http://www.w3.org/2000/svg" width="100%" height="100%" viewBox="0 0 50 52" class=" w-[50px]">
  <defs>
    <clipPath id="clip-path">
      <path id="Path_654" data-name="Path 654" d="M0,20.778H50v-52H0Z" transform="translate(0 31.222)" fill="none"></path>
    </clipPath>
  </defs>
  <g transform="translate(0 0)" clip-path="url(#clip-path)">
    <g transform="translate(0.414 0.416)">
      <path d="M0,10.223C0-5.558,9.421-15.361,24.587-15.361s24.584,9.8,24.584,25.584S39.75,35.806,24.587,35.806,0,26,0,10.223Z" transform="translate(0 15.361)" fill="none" stroke="var(--svg-color)" stroke-width="1"></path>
    </g>
  </g>
  <path d="M0,2.617C.232,4.9,1.861,6.231,4.458,6.231c2.244,0,3.709-1.093,3.709-2.769C8.167,1.84,7.123,1.023,4.2.413,2.078-.03,1.426-.4,1.426-1.236c0-.943.938-1.58,2.311-1.58A2.631,2.631,0,0,1,6.566-.626L7.721-.861a3.778,3.778,0,0,0-3.97-3.02C1.7-3.881.258-2.774.258-1.207.258.219,1.194.926,3.914,1.48c2.324.5,3.072.956,3.072,2.009S6.007,5.167,4.471,5.167c-2,0-3.087-.887-3.317-2.731ZM9.815,6.024h1.166V2.284h3.685c2.027,0,3.275-1.135,3.275-2.978s-1.248-2.978-3.275-2.978H9.815ZM10.981,1.19V-2.58h3.645c1.454,0,2.134.609,2.134,1.885S16.08,1.19,14.626,1.19Zm8.471,4.834h1.166V1.937h5.247V.9H20.619V-2.58H26.3V-3.673H19.453Z" transform="translate(11.773 16.523)" fill="var(--svg-color)"></path>
  <path d="M0,4.058A5.551,5.551,0,0,0,2.082,7.8,7.116,7.116,0,0,0,6.533,9.148c3.592,0,6-1.847,6-4.591a3.9,3.9,0,0,0-2.183-3.511V1a3.255,3.255,0,0,0,1.836-2.87c0-2.431-2.387-4.154-5.673-4.154C3.063-6.019.674-4.254.163-1.324L3.184-.8A3.008,3.008,0,0,1,6.514-3.3c1.612,0,2.612.686,2.612,1.83,0,1.02-.857,1.6-2.429,1.6H5V2.52H6.718c1.816,0,2.694.6,2.694,1.85,0,1.269-1.082,2.059-2.879,2.059A3.163,3.163,0,0,1,3.063,3.455ZM14.435,1.565c0,4.552,2.938,7.583,6.94,7.583,4.064,0,6.961-3.03,6.961-7.583s-2.9-7.584-6.961-7.584c-4,0-6.94,3.032-6.94,7.584m10.779,0c0,3.055-1.49,4.8-3.839,4.8-2.288,0-3.819-1.788-3.819-4.8s1.531-4.8,3.819-4.8c2.349,0,3.839,1.745,3.839,4.8" transform="translate(10.718 30.917)" fill="var(--svg-color)"></path>
</svg>