<svg xmlns="http://www.w3.org/2000/svg" width="100%" height="100%" viewBox="0 0 50 52" class=" w-[50px]">
  <g transform="translate(-612 -1904)">
    <g transform="translate(292 -2794.887)">
      <g transform="translate(320 4698.887)" fill="none" stroke="var(--svg-color)" stroke-width="1">
        <rect width="50" height="52" rx="25" stroke="none"></rect>
        <rect x="0.5" y="0.5" width="49" height="51" rx="24.5" fill="none"></rect>
      </g>
    </g>
    <path d="M-9.457.256-12.722-7h-.943L-16.93.256h.954l.674-1.524h4.219L-10.41.256Zm-3.742-6.3h.021l1.762,4h-3.545Zm5.576,6.3V-2.8h4V-3.58h-4v-2.6H-3.29V-7H-8.514V.256Zm8.8,0V-6.181H3.914V-7H-2.45v.819H.286V.256Zm9.2,0V-.563H6.06V-3.1H10.05V-3.88H6.06v-2.3h4.322V-7H5.168V.256ZM15.7-2.688a2.056,2.056,0,0,0,2.156-2.156C17.855-6.2,16.933-7,15.378-7H11.854V.256h.891V-2.678H14.7L16.549.256h1.037L15.7-2.678ZM12.745-6.181h2.571c1.1,0,1.638.456,1.638,1.337S16.415-3.5,15.337-3.5H12.745ZM-11.012,13.963c2.783,0,4.493-1.259,4.493-3.249,0-1.695-1.2-2.783-4.167-3.529-2.441-.622-2.892-.84-2.892-1.4,0-.653.715-1.135,1.85-1.135A2.513,2.513,0,0,1-9.068,6.438l2.286-.544c-.5-2.006-2.457-3.265-4.944-3.265S-15.956,3.966-15.956,5.8c0,1.539,1.1,2.55,3.949,3.234,2.394.56,3.11.964,3.11,1.695,0,.777-.731,1.228-2.1,1.228a2.686,2.686,0,0,1-3.016-2.286l-2.332.466C-15.925,12.58-13.95,13.963-11.012,13.963Zm10.712,0c3.11,0,4.929-1.477,4.929-4.416v-6.7H2.251V9.455c0,1.695-.886,2.425-2.55,2.425-1.679,0-2.55-.731-2.55-2.441V2.847H-5.228v6.7C-5.228,12.486-3.409,13.963-.3,13.963Zm9.375-.233V6.174h.031l5.115,7.556H16.8V2.847H14.424v7.541h-.031l-5.1-7.541H6.7V13.73Z" transform="translate(636.537 1926.518)" fill="var(--svg-color)"></path>
  </g>
</svg>