<svg xmlns="http://www.w3.org/2000/svg" width="100%" height="100%" viewBox="0 0 366 686" class="m-4 w-lerub_icon">
  <g>
    <g>
      <g>
        <path d="M128.11,161.73c2.21-1.09,4.44-2.18,6.74-3.31,2.32-1.14,4.29,2.16,2.13,3.58-.02,.01-.04,.03-.06,.04-6.23,4.04-12.8,6.67-20.48,4.8-2.74-.67-5.59-.85-8.34-1.46-3.09-.69-4.72-1.61-6.51-4.11-1.26-1.76-.56-2.75,1.53-2.19,3.15,.84,6.09,1.63,9.29,2.49,0-2.1,.07-3.63-.02-5.16-.06-.99-.49-1.97-.51-2.95-.06-3.67,3.63-8.79,6.58-9.24,2.8-.43,5.9,1.75,7.34,6.04,1.12,3.34,1.43,6.94,2.3,11.47Z"></path>
        <path d="M127.8,161.91c1.15-.56,2.3-1.13,3.45-1.69,.58-.29,1.16-.57,1.75-.86s1.19-.66,1.82-.87c1.36-.45,2.77,.63,2.78,2.04,0,.83-.5,1.37-1.16,1.8-1.25,.82-2.55,1.56-3.9,2.22-1.99,.97-4.08,1.76-6.25,2.23s-4.33,.6-6.51,.39c-1.18-.12-2.32-.36-3.47-.62-1.22-.27-2.47-.46-3.71-.64-2.19-.32-4.47-.59-6.55-1.41-1.61-.64-2.88-1.73-3.91-3.11-.52-.7-.97-1.37-.74-2.23,0-.03,.11-.13,.11-.14,.05,.14-.54,.1-.22,.15,.19,.03,.44-.06,.65-.05,.61,.04,1.21,.25,1.79,.4,2.78,.75,5.57,1.49,8.35,2.24,.05,.01,.65-.34,.65-.38,0-1.54,.06-3.09,0-4.63s-.67-2.88-.48-4.38c.32-2.47,1.77-4.89,3.54-6.6,.23-.22,.46-.43,.71-.62,.12-.09,.82-.53,.45-.34,.5-.25,1.01-.41,1.58-.44,1.02-.07,2.02,.21,2.91,.71,2.38,1.33,3.65,3.92,4.37,6.44,.97,3.4,1.31,6.95,1.98,10.41-.01-.08,.67-.29,.65-.38-.64-3.34-.99-6.76-1.88-10.05-.72-2.69-2.02-5.5-4.6-6.87-.96-.51-2.09-.77-3.17-.59-.8,.13-1.52,.56-2.19,.98-2.18,1.35-3.83,3.78-4.62,6.18-.23,.7-.39,1.43-.42,2.16-.03,.96,.31,1.85,.45,2.79,.28,1.83,.08,3.77,.07,5.62l.65-.38c-2.78-.75-5.57-1.49-8.35-2.24-.85-.23-1.89-.66-2.74-.23-.38,.19-.9,.42-.99,.87-.18,.86,.68,1.81,1.16,2.41,.6,.74,1.28,1.41,2.08,1.92,1.89,1.22,4.24,1.58,6.41,1.92,1.36,.21,2.72,.39,4.07,.63s2.65,.61,4,.79c2.45,.33,4.94,.21,7.35-.32,2.28-.5,4.46-1.35,6.54-2.4,1.72-.86,3.46-1.82,5.03-2.92s.99-3.54-.91-3.8c-.48-.06-.92,.07-1.34,.28-.74,.35-1.47,.72-2.2,1.08-1.48,.72-2.95,1.45-4.43,2.17-.2,.1-.47,.29-.63,.36Z"></path>
      </g>
      <g>
        <path d="M228.48,155.91c4.88-1.95,9.38-3.75,14.05-5.62,1.76-.7,2.59,.14,1.85,1.87-.63,1.48-2,2.47-3.56,3.18-8.77,4.01-17.86,6.46-27.65,4.81-3.35-.56-6.15-1.76-7.91-4.68-1.23-2.04-.47-2.96,1.75-2.06,2.52,1.02,4.93,1.99,7.68,3.09,.64-3.39,.98-5.92,1.62-8.37,.66-2.5,1.29-5.11,2.57-7.32,.78-1.34,2.87-2.93,4.13-2.75,1.66,.24,3.91,1.83,4.42,3.34,.93,2.75,.82,5.86,1.04,8.83,.12,1.56,.02,3.13,.02,5.67Z"></path>
        <path d="M228.15,156.09c4.54-1.81,9.07-3.63,13.61-5.44,.61-.25,1.5-.68,2.15-.27,.58,.36,.42,1.18,.23,1.72-.78,2.22-2.99,3.08-4.99,3.94-8.31,3.55-17.68,5.7-26.68,3.74-1.95-.42-3.86-1.17-5.33-2.54-.74-.68-1.39-1.51-1.83-2.42-.25-.51-.59-1.37,0-1.79l-.6,.35c.48-.27,1.15-.07,1.63,.1,.86,.29,1.7,.67,2.54,1.01,1.83,.74,3.66,1.47,5.49,2.21,.04,.02,.64-.33,.65-.38,.51-2.73,.89-5.5,1.58-8.19,.37-1.43,.73-2.87,1.2-4.27,.43-1.28,.92-2.67,1.76-3.74,.71-.91,1.67-1.82,2.82-1.88,1.09-.05,2.28,.68,3.1,1.32,1,.78,1.57,1.67,1.89,2.89,.38,1.47,.51,3,.6,4.51s.21,3.12,.24,4.68-.03,2.96-.03,4.45c0-.12,.65-.24,.65-.38,0-1.43,.05-2.86,.03-4.29s-.14-2.92-.22-4.38c-.09-1.67-.2-3.35-.62-4.98-.35-1.35-1.04-2.31-2.18-3.11-.9-.63-2.15-1.32-3.28-1.02-.74,.2-1.49,.67-2.11,1.11-2.47,1.73-3.28,4.89-4.02,7.65-.89,3.3-1.42,6.64-2.05,9.99l.65-.38c-1.45-.58-2.89-1.17-4.34-1.75-1.27-.51-2.54-1.13-3.85-1.53-.73-.22-1.24-.18-1.88,.19-.57,.33-.7,.74-.5,1.4,.64,2.1,2.68,3.78,4.61,4.64,2.35,1.05,5.03,1.35,7.57,1.52,5.76,.38,11.51-.64,16.96-2.48,2.59-.87,5.26-1.84,7.66-3.14,1.6-.86,3.61-2.16,3.73-4.18,.06-1.09-.91-1.26-1.77-1-1.59,.48-3.14,1.24-4.68,1.86-3.23,1.29-6.47,2.59-9.7,3.88-.23,.09-.42,.28-.65,.38Z"></path>
      </g>
      <path d="M225.97,339.5c9.13-1.78,14.36-5.3,23.81-10.8,3.03-1.77,15.25-8.05,39.7-20.62,39.45-20.28,31.46-13.45,40.22-19.3,0,0,9.57-6.55,22.77-8.81,4.03-.69,7.96-.41,11.69,1.34,3.99,1.87,5.26,4.72,3.71,8.78-.82,2.15-1.96,4.22-3.22,6.16-.81,1.26-1.19,2.25-.52,3.71,2.05,4.45,1.77,9.03,.44,13.63-1.68,5.81-4.43,8.98-12.26,9.56-2.67,.2-5.4-.32-8.38-.53-.24,.03-.39,.29-.49,.62-.93,2.95-3.13,3.74-5.94,3.48-.77-.07-1.55-.15-2.3-.33-3.28-.83-4.08-1.95-3.29-5.22,1.09-4.51,2.35-8.97,2.52-13.66,.03-.76,.86-1.8,1.59-2.16,2.17-1.06,4.55-1.1,6.82-.34,.83,.28,1.64,1.07,2.1,1.84,.95,1.57,1.62,3.3,2.47,4.93,.63,1.2,1.3,2.38,2.09,3.77,.3,.53,1.05,.59,1.43,.11,.32-.41,.57-.75,.73-1.12,2.57-5.97,2.01-11.49-2.49-16.43-1.5-1.64-1.51-2.35-.03-3.99,1.34-1.48,2.38-3.09,3.24-5.19,.19-.45-.25-.92-.72-.77-1.04,.33-1.91,.59-2.7,1-2.94,1.5-5.99,2.83-8.72,4.68-6.28,4.25-29.3,14.08-51.15,24.63-7.97,3.85-15.09,7.53-29.34,14.9-18.27,9.44-31.91,16.82-45.32,15.87-3.87-.27-10.35-.73-15.46-3.6-.77-.43-4.3-2.48-9.64-5.42-.76-.42-1.38-.76-1.79-.98-.1,.97-.21,1.68-.25,2.4-8.28,46.52-8.68,84.2-10.43,109.21-5.46,78.02,0,0-12.04,191.28-.02,.33,.17,3.59-1.64,5.9-.35,.45-1.35,1.73-2.92,1.91-.17,.02-.62,.06-1.16-.07-1.49-.35-2.35-1.63-2.67-2.1-2.83-4.21-2.13-10.08-2.13-10.08,.81-6.75,4.85-80.66,10.4-182.98,1.59-43.75,6.84-91.09,11.71-124.72,.61-4.19,.84-9.38,1.19-13.31,.99-11.78,1.49-17.67,1.53-18.39,.19-3.25,.21-4.4,.59-6.48,.48-2.65,.39-5.47,1.44-7.95,.13-.31,.54-1.22,.18-2.05,0,0-.25-.56-.89-.93-1.42-.81-3.55,.76-6.82,1.86,0,0-3.87,1.3-8.24,.99,0,0-1.57-.11-3.55-.93,0,0-1.16-.48-2.08-1.56-.16-.18-.36-.45-.31-.75,.05-.31,.35-.51,.57-.63,1.23-.71,2.15-.78,2.15-.78,1.59-.12,3.91-.69,7.97-1.68,1.6-.39,2.89-.98,6.44-3.2,7.49-4.68,12.7-8.48,15.25-10.71,0,0,0,0,0,0,36.93-32.32,101.43-110.15,101.43-110.15s9.18-11.08,14.16-25.53c.36-1.04,1.75-5.21,2.29-10.76,.34-3.5,.22-6.25-.25-8.84-.44-2.4-1.01-3.78-1.23-4.3,0,0-.79-3.82-4.02-5.39-4.06-1.97-8.76-1.33-27.63-1.55l-29.88,.56c-22.73,.42-45.44,1.69-68.15,2.63-36.69,1.53-73.73,3.86-110.67,6.06-9.2,.55-18.44,.58-27.62,1.44-26.68,2.5-27.72,4.11-28.16,5.16-.51,1.19-.91,3.49-.19,5.51,3.61,10.22,10.6,16.89,10.6,16.89,3.15,2.64,36.64,37.95,103.62,108.55,5.74,6.05,11.59,12.01,17.26,18.13,3.96,4.28,4.6,5.31,5.84,6.1,.18,.11,.97,.6,1.55,1.55,.24,.38,.8,1.3,.54,2.26-.26,1-1.26,1.5-1.71,1.73-2.28,1.15-4.9,.3-6.22-.15-1.43-.48-3-1.26-5.72-3.42-2.31-1.84-3.47-2.77-5.53-5.16-5.38-6.23-86.36-94.84-109.45-114.04,0,0-7.33-6.1-14.93-15.95-3.91-5.08-6.17-10.04-6.62-11.06-.26-.58-.39-.87-.46-1.07-2.03-5.57,.88-12.33,4.87-16.03,3.88-3.6,8.8-4.22,10.65-4.42,59.03-6.4,88.54-9.6,181.09-10.9,.96-.01,1.68-.44,1.68-.44,.72-.43,1.06-1.06,1.15-1.21,1.46-2.52,29.29-39.56,37.22-49.75,4.66-5.99,7.62-9.73,13.75-17.05C268.8,1.68,272.82-.15,276.62,0c5.72,.24,11.95,5.06,19.79,11.12,2,1.55,3.4,2.8,4.05,3.33,28.55,23.45,39.85,38.43,40.82,42.62,.99,4.3-.98,6.49-1.56,7.22-3.1,3.9-9.67,3.35-12.5,3.11-11.49-.96-19.67-8.2-21.32-9.71-3.68-3.38-11.01-11.46-15.8-16.14-.28-.27-1.46-1.41-3.32-2.41-1.27-.69-3.56-1.92-5.94-1.39-1.61,.36-2.65,1.39-3.11,1.85-7.91,7.88-16.32,15.28-23.87,23.52-2.45,2.67-6.63,7.01-15,15.69-.6,.63-3.35,3.47-7.06,7.33-1.02,1.06-1.95,2.03-2.72,2.83-.49,.34-.66,.59-.61,.77,.17,.68,3.34,.47,4.32,.41,39.01-2.37,77.41-4.69,86.25,9.57,1.8,2.91,2.12,6.08,2.66,11.85,.93,10.01-1.47,17.73-2.95,22.31-4.06,12.49-10.63,20.97-12.88,23.85-49.72,63.67-95.11,107.2-103.71,111.63-4.23,2.18-7.67,5.64-11.57,8.36-1.08,.75-1.16,1.65-1.21,2.73-.21,4.16-.52,8.31-.68,12.47-.33,8.32-.58,16.65-.88,24.97-.12,3.38,1.03,6.41,2.21,9.52,.39,1.01,.92,2.15,1.84,3.44,2.33,3.28,5.44,4.76,6.92,5.47,12.6,6.02,27.21,3.17,27.21,3.17ZM270.75,34.96c1.39-1.49,4.36-4.59,8.9-5.41,4.11-.74,7.74,.7,9.98,1.63,3.83,1.58,6.48,3.73,9.75,6.79,8.2,7.66,8.47,9.94,15.05,15.78,8.79,7.8,12.57,7.53,14.21,7.14,.31-.07,3.57-.88,4.14-3.06,.5-1.88-1.25-3.83-2.01-4.65-15.33-16.71-17.25-18.31-17.25-18.31-8.71-7.24-17.65-14.21-26.31-21.51-3.32-2.8-5.6-4.77-8.97-4.84-5.5-.12-9.67,4.91-16.36,13.3-9.13,11.45-13,16.69-15.95,20.39,0,0-33.14,41.64-35.79,46.07-.17,.28-.61,1.02-.33,1.58,.21,.41,.71,.66,1.46,.67,1.5,.02,2.83,.03,4.16-.1,1.16-.11,1.73-1.15,1.99-1.43,17.05-18.7,36.05-35.56,53.32-54.05Z"></path>
      <path d="M141.01,341.2c.64-2.7,1.11-5.67,1.11-5.67,.91-5.67,1.11-10.57,1.07-14.29-.51-6.03-.3-11.99,.12-17.97,.11-1.53,.46-3.06,.79-4.57,.28-1.27,1.2-1.9,2.47-2.14,3.48-.65,5.87,.85,6.19,4.29,.87,9.54,1.87,19.08,2.27,28.65,.39,9.19,.32,18.41,0,27.6-.26,7.67-1.1,15.32-1.87,22.96-1.01,10.07-2.15,20.12-3.38,30.16-2.18,17.82-2.67,35.75-3.49,53.66-.6,13.06-1.03,26.13-1.65,39.18-.54,11.32-1.39,22.62-1.83,33.94-.67,17.32-1.06,34.65-1.63,51.98-.44,13.55-.97,27.09-1.47,40.64-.17,4.55-.2,9.11-.59,13.64-.23,2.67-1.02,5.29-1.61,7.92-.31,1.37-1.33,1.82-2.64,1.76-.68-.03-1.36-.13-2.03-.19-1.32-.12-1.99-.75-2.35-2.11-.87-3.3-1.38-6.58-1.32-10.02,.71-36.79,1.25-73.59,2.03-110.38,.4-18.78,1.08-37.56,1.82-56.33,.62-15.58,1.38-31.15,2.35-46.71,.56-8.98,1.66-17.93,2.51-26.9,.9-9.45,1.8-18.89,2.68-28.34,.08-.81,1.16-7,1.61-7.84-.71,.75-1.41,3.79-2.9,6.19-5.92,8.82-13.65,15.81-22.06,22.21-5.77,4.39-11.81,8.11-18.67,10.57-9.24,3.31-17.5,8.28-24.9,14.78-7.82,6.88-12.35,15.36-13.6,25.57-1.37,11.17-1.8,22.39-1.27,33.63,.14,3.02,.84,6,1.38,9.13,.1,.58,.63,.88,1.18,.65,2.15-.91,3.1-2.35,3.56-4.64,.96-4.86,1.9-9.67,1.86-14.65-.01-1.81,.59-2.47,2.36-2.76,4.11-.66,5.76,.56,7,4.74,.58,1.97,.84,5.28,.64,7.32-.45,4.49-1.55,8.85-4.46,12.53-2.66,3.37-6.27,5.28-10.44,5.77-2.55,.3-5.25,.04-7.79-.42-3.63-.66-6.19-2.99-7.16-6.51-1.13-4.09-2.39-8.26-2.62-12.45-.63-11.53,.08-23.03,1.96-34.44,2.16-13.08,8.89-23.29,19.28-31.45,6.39-5.02,13.07-9.54,20.69-12.33,10.3-3.77,17.73-9.69,25.85-16.06,21.2-16.64,27.68-34.94,28.94-40.29Z"></path>
      <path d="M192.3,636.01c-1.45-.44-1.34-2.54,.16-2.76,.85-.12,1.72-.06,2.62,.16,8.67,2.13,17.36,4.17,26.02,6.38,4.32,1.1,8.6,2.39,12.85,3.76,3.1,1,5.78,2.76,7.99,5.18,3.31,3.63,3.38,7.52,.06,11.16-2.79,3.05-6.28,5.18-9.98,6.96-9.82,4.72-20.04,8.43-30.49,11.5-9.51,2.8-19.15,5.06-28.99,6.3-10.45,1.32-20.95,1.51-31.47,1.22-5.54-.15-11.09-.24-16.61-.66-14.75-1.12-29.35-3.19-43.41-8-3.75-1.28-7.37-3.02-10.89-4.84-1.95-1.01-3.76-2.46-5.31-4.02-3.37-3.39-3.49-7.21-.5-10.96,2.51-3.15,5.65-5.62,9.19-7.53,4.87-2.63,9.74-5.28,14.78-7.57,5.65-2.57,11.48-4.76,17.25-7.08,3.97-1.59,8.12-1.91,12.34-1.56h.04c1.18,.11,1.51,1.65,.48,2.24-.12,.07-.23,.13-.35,.19-11.18,5.86-22.84,10.85-33.4,17.84-2.65,1.76-5.17,3.81-7.4,6.07-2.76,2.8-2.43,4.69,.96,6.74,5.37,3.25,11.3,5.09,17.4,6.43,9.88,2.16,19.84,3.79,29.97,4.22,7.87,.33,15.74,.84,23.62,.92,19.66,.21,38.63-3.66,57.1-10.11,5.58-1.95,11.05-4.25,16.48-6.6,2.02-.87,3.89-2.2,5.62-3.59,2.45-1.96,2.36-3.31-.04-5.41-.66-.57-1.4-1.04-2.11-1.56-7.62-5.55-16.18-9.2-25.07-12.15-2.95-.98-5.9-1.95-8.87-2.86,0,0-.02,0-.03,0Z"></path>
      <path d="M82.8,462.34c.27,.33,.22,.81-.12,1.07-1.69,1.33-3.37,1.37-5.27-.05-1.14-.86-2.04-2.04-2.97-3.15-.75-.89-1.33-1.91-2.06-2.81-1.11-1.38-2.41-2.02-4.33-1.55-1.16,.29-2.52,.15-3.71-.14-1.65-.41-1.89-1.38-.96-2.83,2.84-4.43,9.63-5.85,14.25-2.91,1.05,.67,1.98,1.56,2.87,2.45,1.24,1.24,1.66,2.69,1.33,4.5-.6,3.2-.55,3.62,.97,5.42Z"></path>
    </g>
  </g>
</svg>