<svg xmlns="http://www.w3.org/2000/svg" width="128.134" height="58.436" viewBox="0 0 128.134 58.436" xmlns:xlink="http://www.w3.org/1999/xlink">   <g id="Group_24" data-name="Group 24">       <path id="Path_1" data-name="Path 1" d="M0,23.868H25.594v-8.23H12.425L17.643,0H7.786Zm28.576,0H51.353v-7H37.687V14.814H49.7V9.053H37.687V6.995H51.353V0H28.576Zm6.543,33.745h10.1l3.479-10.7h3.975l5.8,10.7H68.747L62.369,46.5a9.46,9.46,0,0,0,6.958-9.465c0-5.762-4.142-9.877-10.188-9.877H45.058Zm16.317-18.93,1.076-3.292h5.8c1.16,0,1.906.576,1.906,1.646s-.746,1.646-1.906,1.646ZM62.534,0,75.787,45.6c2.319,8.066,4.473,12.839,12.921,12.839,6.875,0,13.75-4.691,9.691-18.6L86.886,0H76.533L89.288,44.2c.828,2.716.828,4.363-.911,4.363-1.077,0-1.657-.659-2.237-2.716L72.888,0Zm36.2,30.452h19.8a9.217,9.217,0,0,0,9.608-9.464,8.435,8.435,0,0,0-4.307-7.573,6.431,6.431,0,0,0,1.408-4.362c0-5.35-3.81-9.053-9.194-9.053H98.73Zm9.111-8.23V18.436h9.194a1.763,1.763,0,0,1,1.988,1.893,1.763,1.763,0,0,1-1.988,1.893Zm0-11.029V8.23h6.544a1.386,1.386,0,0,1,1.49,1.481,1.387,1.387,0,0,1-1.49,1.482Z" fill="#ff662c"></path>     </g>  </svg>